<mxfile host="app.diagrams.net" modified="2020-06-05T08:16:39.725Z" agent="5.0 (Windows NT 10.0; Win64; x64) AppleWebKit/537.36 (KHTML, like Gecko) Chrome/83.0.4103.61 Safari/537.36" etag="jlWaTQa7GSAfUm65HNjs" version="13.1.14" type="github">
  <diagram id="vGk0o2nWuRs0icXs-NNO" name="Page-1">
    <mxGraphModel dx="1422" dy="794" grid="1" gridSize="10" guides="1" tooltips="1" connect="1" arrows="1" fold="1" page="1" pageScale="1" pageWidth="827" pageHeight="1169" math="0" shadow="0">
      <root>
        <mxCell id="0" />
        <mxCell id="1" parent="0" />
        <mxCell id="TJG24RdXMXhbs9ESTVYp-2" value="&lt;font style=&quot;font-size: 18px&quot;&gt;云端打车平台系统&lt;/font&gt;" style="rounded=0;whiteSpace=wrap;html=1;verticalAlign=top;" vertex="1" parent="1">
          <mxGeometry x="80" y="700" width="640" height="130" as="geometry" />
        </mxCell>
        <mxCell id="TJG24RdXMXhbs9ESTVYp-3" value="账户管理模块" style="rounded=0;whiteSpace=wrap;html=1;" vertex="1" parent="1">
          <mxGeometry x="94" y="760" width="86" height="50" as="geometry" />
        </mxCell>
        <mxCell id="TJG24RdXMXhbs9ESTVYp-4" value="订单管理模块" style="rounded=0;whiteSpace=wrap;html=1;" vertex="1" parent="1">
          <mxGeometry x="190" y="760" width="90" height="50" as="geometry" />
        </mxCell>
        <mxCell id="TJG24RdXMXhbs9ESTVYp-5" value="司机调度模块" style="rounded=0;whiteSpace=wrap;html=1;" vertex="1" parent="1">
          <mxGeometry x="288.5" y="760" width="90" height="50" as="geometry" />
        </mxCell>
        <mxCell id="TJG24RdXMXhbs9ESTVYp-6" value="费用结算模块" style="rounded=0;whiteSpace=wrap;html=1;" vertex="1" parent="1">
          <mxGeometry x="390" y="760" width="90" height="50" as="geometry" />
        </mxCell>
        <mxCell id="TJG24RdXMXhbs9ESTVYp-7" value="&lt;font style=&quot;font-size: 20px&quot;&gt;......&lt;/font&gt;" style="rounded=0;whiteSpace=wrap;html=1;" vertex="1" parent="1">
          <mxGeometry x="490" y="760" width="70" height="50" as="geometry" />
        </mxCell>
        <mxCell id="TJG24RdXMXhbs9ESTVYp-8" value="乘客客户端" style="rounded=0;whiteSpace=wrap;html=1;fillColor=#CCCCCC;" vertex="1" parent="1">
          <mxGeometry x="120" y="320" width="86" height="40" as="geometry" />
        </mxCell>
        <mxCell id="TJG24RdXMXhbs9ESTVYp-9" value="乘客亲情关怀版客户端" style="rounded=0;whiteSpace=wrap;html=1;fillColor=#ffe6cc;strokeColor=#d79b00;" vertex="1" parent="1">
          <mxGeometry x="216" y="320" width="90" height="40" as="geometry" />
        </mxCell>
        <mxCell id="TJG24RdXMXhbs9ESTVYp-10" value="web流量入口" style="rounded=0;whiteSpace=wrap;html=1;fillColor=#CCCCCC;" vertex="1" parent="1">
          <mxGeometry x="314.5" y="320" width="90" height="40" as="geometry" />
        </mxCell>
        <mxCell id="TJG24RdXMXhbs9ESTVYp-11" value="企业版" style="rounded=0;whiteSpace=wrap;html=1;fillColor=#CCCCCC;" vertex="1" parent="1">
          <mxGeometry x="416" y="320" width="90" height="40" as="geometry" />
        </mxCell>
        <mxCell id="TJG24RdXMXhbs9ESTVYp-12" value="司机客户端" style="rounded=0;whiteSpace=wrap;html=1;fillColor=#CCCCCC;" vertex="1" parent="1">
          <mxGeometry x="520" y="320" width="90" height="40" as="geometry" />
        </mxCell>
        <mxCell id="TJG24RdXMXhbs9ESTVYp-13" value="API服务" style="rounded=0;whiteSpace=wrap;html=1;fillColor=#CCCCCC;" vertex="1" parent="1">
          <mxGeometry x="120" y="420" width="490" height="40" as="geometry" />
        </mxCell>
      </root>
    </mxGraphModel>
  </diagram>
</mxfile>
